<?xml version="1.0" encoding="UTF-8" standalone="no"?>
<svg
   id="github"
   x="0px"
   y="0px"
   width="438.536px"
   height="438.536px"
   viewBox="0 0 438.536 438.536"
   version="1.1"
   xmlns="http://www.w3.org/2000/svg"
   xmlns:svg="http://www.w3.org/2000/svg">
  <defs
     id="defs6" />
  <path
     d="M 414.41,24.123 C 398.326,8.042 378.964,0 356.309,0 H 82.225 C 59.577,0 40.208,8.042 24.123,24.123 8.042,40.207 0,59.576 0,82.225 V 356.313 C 0,378.963 8.042,398.33 24.123,414.411 40.207,430.495 59.577,438.537 82.225,438.537 H 146.178 C 150.362,438.537 153.505,438.393 155.598,438.113 157.69,437.825 159.782,436.587 161.877,434.396 163.973,432.209 165.017,429.02 165.017,424.834 165.017,424.266 164.967,417.788 164.873,405.417 164.776,393.042 164.729,383.241 164.729,376.007 L 158.162,377.15 C 153.975,377.91 148.693,378.245 142.316,378.149 135.942,378.053 129.326,377.389 122.475,376.151 115.62,374.912 109.246,372.058 103.345,367.589 97.447,363.112 93.26,357.261 90.785,350.03 L 87.929,343.459 C 86.026,339.086 83.03,334.23 78.937,328.905 74.844,323.573 70.705,319.956 66.518,318.053 L 64.519,316.625 C 63.188,315.674 61.951,314.527 60.808,313.196 59.667,311.861 58.811,310.527 58.24,309.199 57.669,307.864 58.143,306.769 59.667,305.91 61.191,305.055 63.948,304.631 67.947,304.631 L 73.655,305.486 C 77.463,306.246 82.171,308.528 87.789,312.337 93.403,316.143 98.018,321.091 101.635,327.18 106.015,334.986 111.292,340.93 117.481,345.023 123.665,349.12 129.9,351.166 136.18,351.166 142.46,351.166 147.884,350.69 152.454,349.742 157.019,348.788 161.302,347.357 165.301,345.454 167.014,332.703 171.678,322.895 179.289,316.044 168.441,314.901 158.687,313.19 150.024,310.904 141.366,308.618 132.419,304.909 123.189,299.768 113.955,294.628 106.295,288.256 100.204,280.638 94.114,273.02 89.116,263.028 85.217,250.66 81.316,238.285 79.365,224.008 79.365,207.831 79.365,184.802 86.886,165.194 101.922,149.017 94.878,131.697 95.543,112.285 103.919,90.775 109.439,89.061 117.625,90.347 128.473,94.63 139.323,98.916 147.267,102.581 152.313,105.622 157.359,108.664 161.402,111.236 164.448,113.332 182.153,108.383 200.424,105.909 219.266,105.909 238.107,105.909 256.381,108.383 274.087,113.332 L 284.936,106.48 C 292.362,101.91 301.116,97.723 311.205,93.918 321.293,90.112 329,89.064 334.332,90.778 342.894,112.288 343.66,131.7 336.611,149.019 351.647,165.198 359.17,184.805 359.17,207.834 359.17,224.014 357.219,238.339 353.318,250.803 349.42,263.27 344.379,273.266 338.188,280.784 332.004,288.303 324.294,294.627 315.064,299.77 305.832,304.907 296.886,308.623 288.224,310.902 279.563,313.188 269.81,314.906 258.961,316.049 268.852,324.611 273.8,338.121 273.8,356.587 V 424.825 C 273.8,428.062 274.272,430.677 275.224,432.676 276.182,434.674 277.702,436.05 279.795,436.817 281.897,437.577 283.744,438.052 285.366,438.241 286.988,438.432 289.315,438.528 292.361,438.528 H 356.314 C 378.962,438.528 398.332,430.486 414.409,414.402 430.493,398.318 438.535,378.948 438.535,356.3 V 82.225 C 438.533,59.576 430.491,40.204 414.41,24.123 Z"
     id="path8"
     style="fill:#ffffff;fill-opacity:1" />
</svg>
